<mxfile host="app.diagrams.net" modified="2024-03-04T22:49:05.853Z" agent="Mozilla/5.0 (Windows NT 10.0; Win64; x64) AppleWebKit/537.36 (KHTML, like Gecko) Chrome/122.0.0.0 Safari/537.36" etag="eaYHo0YWN3NPfjNq0Puc" version="23.1.1" type="device">
  <diagram name="Page-1" id="edf60f1a-56cd-e834-aa8a-f176f3a09ee4">
    <mxGraphModel dx="1434" dy="746" grid="1" gridSize="10" guides="1" tooltips="1" connect="1" arrows="1" fold="1" page="1" pageScale="1" pageWidth="1100" pageHeight="850" background="none" math="0" shadow="0">
      <root>
        <mxCell id="0" />
        <mxCell id="1" parent="0" />
        <mxCell id="ZDEfIaSkDqP6nMyyf2R--41" value="" style="rounded=0;whiteSpace=wrap;html=1;fillColor=#d5e8d4;strokeColor=#82b366;" vertex="1" parent="1">
          <mxGeometry x="513" y="130" width="347" height="210" as="geometry" />
        </mxCell>
        <mxCell id="ZDEfIaSkDqP6nMyyf2R--36" value="" style="rounded=0;whiteSpace=wrap;html=1;fillColor=#e1d5e7;strokeColor=#9673a6;" vertex="1" parent="1">
          <mxGeometry x="513" y="350" width="350" height="330" as="geometry" />
        </mxCell>
        <mxCell id="ZDEfIaSkDqP6nMyyf2R--31" value="" style="rounded=0;whiteSpace=wrap;html=1;dashed=1;fillColor=#dae8fc;strokeColor=#6c8ebf;" vertex="1" parent="1">
          <mxGeometry x="30" y="130" width="420" height="550" as="geometry" />
        </mxCell>
        <mxCell id="ZDEfIaSkDqP6nMyyf2R--6" style="edgeStyle=orthogonalEdgeStyle;rounded=0;orthogonalLoop=1;jettySize=auto;html=1;exitX=0.5;exitY=1;exitDx=0;exitDy=0;entryX=0.5;entryY=0;entryDx=0;entryDy=0;" edge="1" parent="1" source="ZDEfIaSkDqP6nMyyf2R--1" target="ZDEfIaSkDqP6nMyyf2R--2">
          <mxGeometry relative="1" as="geometry" />
        </mxCell>
        <mxCell id="ZDEfIaSkDqP6nMyyf2R--1" value="ProcessDialog&lt;br&gt;(dialog)" style="rounded=0;whiteSpace=wrap;html=1;" vertex="1" parent="1">
          <mxGeometry x="250" y="170" width="120" height="60" as="geometry" />
        </mxCell>
        <mxCell id="ZDEfIaSkDqP6nMyyf2R--4" style="edgeStyle=orthogonalEdgeStyle;rounded=0;orthogonalLoop=1;jettySize=auto;html=1;exitX=1;exitY=0.5;exitDx=0;exitDy=0;entryX=0;entryY=0.5;entryDx=0;entryDy=0;" edge="1" parent="1" source="ZDEfIaSkDqP6nMyyf2R--2" target="ZDEfIaSkDqP6nMyyf2R--3">
          <mxGeometry relative="1" as="geometry" />
        </mxCell>
        <mxCell id="ZDEfIaSkDqP6nMyyf2R--8" value="" style="edgeStyle=orthogonalEdgeStyle;rounded=0;orthogonalLoop=1;jettySize=auto;html=1;" edge="1" parent="1" source="ZDEfIaSkDqP6nMyyf2R--2">
          <mxGeometry relative="1" as="geometry">
            <mxPoint x="190" y="290" as="targetPoint" />
          </mxGeometry>
        </mxCell>
        <mxCell id="ZDEfIaSkDqP6nMyyf2R--2" value="isConditional&lt;br style=&quot;font-size: 10px;&quot;&gt;?" style="rhombus;whiteSpace=wrap;html=1;fontSize=10;" vertex="1" parent="1">
          <mxGeometry x="290" y="250" width="80" height="80" as="geometry" />
        </mxCell>
        <mxCell id="ZDEfIaSkDqP6nMyyf2R--17" style="edgeStyle=orthogonalEdgeStyle;rounded=0;orthogonalLoop=1;jettySize=auto;html=1;exitX=0.5;exitY=1;exitDx=0;exitDy=0;entryX=0.5;entryY=0;entryDx=0;entryDy=0;" edge="1" parent="1" source="ZDEfIaSkDqP6nMyyf2R--3" target="ZDEfIaSkDqP6nMyyf2R--16">
          <mxGeometry relative="1" as="geometry" />
        </mxCell>
        <mxCell id="ZDEfIaSkDqP6nMyyf2R--3" value="Copy Dialog&lt;br&gt;to UI" style="rounded=0;whiteSpace=wrap;html=1;" vertex="1" parent="1">
          <mxGeometry x="540" y="140" width="120" height="60" as="geometry" />
        </mxCell>
        <mxCell id="ZDEfIaSkDqP6nMyyf2R--5" value="No" style="text;html=1;strokeColor=none;fillColor=none;align=center;verticalAlign=middle;whiteSpace=wrap;rounded=0;" vertex="1" parent="1">
          <mxGeometry x="340" y="260" width="60" height="30" as="geometry" />
        </mxCell>
        <mxCell id="ZDEfIaSkDqP6nMyyf2R--9" value="Yes" style="text;html=1;strokeColor=none;fillColor=none;align=center;verticalAlign=middle;whiteSpace=wrap;rounded=0;" vertex="1" parent="1">
          <mxGeometry x="210" y="260" width="60" height="30" as="geometry" />
        </mxCell>
        <mxCell id="ZDEfIaSkDqP6nMyyf2R--12" style="edgeStyle=orthogonalEdgeStyle;rounded=0;orthogonalLoop=1;jettySize=auto;html=1;exitX=0.5;exitY=0;exitDx=0;exitDy=0;entryX=0;entryY=0.5;entryDx=0;entryDy=0;" edge="1" parent="1" source="ZDEfIaSkDqP6nMyyf2R--11" target="ZDEfIaSkDqP6nMyyf2R--1">
          <mxGeometry relative="1" as="geometry" />
        </mxCell>
        <mxCell id="ZDEfIaSkDqP6nMyyf2R--11" value="Process&lt;br&gt;Condition" style="rounded=0;whiteSpace=wrap;html=1;" vertex="1" parent="1">
          <mxGeometry x="120" y="260" width="120" height="60" as="geometry" />
        </mxCell>
        <mxCell id="ZDEfIaSkDqP6nMyyf2R--13" value="Resulting Dialog" style="text;html=1;strokeColor=none;fillColor=none;align=center;verticalAlign=middle;whiteSpace=wrap;rounded=0;" vertex="1" parent="1">
          <mxGeometry x="130" y="170" width="60" height="30" as="geometry" />
        </mxCell>
        <mxCell id="ZDEfIaSkDqP6nMyyf2R--20" style="edgeStyle=orthogonalEdgeStyle;rounded=0;orthogonalLoop=1;jettySize=auto;html=1;" edge="1" parent="1" source="ZDEfIaSkDqP6nMyyf2R--14" target="ZDEfIaSkDqP6nMyyf2R--1">
          <mxGeometry relative="1" as="geometry" />
        </mxCell>
        <mxCell id="ZDEfIaSkDqP6nMyyf2R--14" value="Interaction" style="ellipse;whiteSpace=wrap;html=1;" vertex="1" parent="1">
          <mxGeometry x="260" y="50" width="100" height="40" as="geometry" />
        </mxCell>
        <mxCell id="ZDEfIaSkDqP6nMyyf2R--38" style="edgeStyle=orthogonalEdgeStyle;rounded=0;orthogonalLoop=1;jettySize=auto;html=1;entryX=0.25;entryY=0;entryDx=0;entryDy=0;" edge="1" parent="1" source="ZDEfIaSkDqP6nMyyf2R--16" target="ZDEfIaSkDqP6nMyyf2R--36">
          <mxGeometry relative="1" as="geometry" />
        </mxCell>
        <mxCell id="ZDEfIaSkDqP6nMyyf2R--40" style="edgeStyle=orthogonalEdgeStyle;rounded=0;orthogonalLoop=1;jettySize=auto;html=1;entryX=0;entryY=0.5;entryDx=0;entryDy=0;" edge="1" parent="1" source="ZDEfIaSkDqP6nMyyf2R--16" target="ZDEfIaSkDqP6nMyyf2R--37">
          <mxGeometry relative="1" as="geometry" />
        </mxCell>
        <mxCell id="ZDEfIaSkDqP6nMyyf2R--16" value="Copy responses&lt;br&gt;text to UI buttons" style="rounded=0;whiteSpace=wrap;html=1;" vertex="1" parent="1">
          <mxGeometry x="540" y="240" width="120" height="60" as="geometry" />
        </mxCell>
        <mxCell id="ZDEfIaSkDqP6nMyyf2R--23" style="edgeStyle=orthogonalEdgeStyle;rounded=0;orthogonalLoop=1;jettySize=auto;html=1;exitX=0;exitY=0.5;exitDx=0;exitDy=0;entryX=1;entryY=0;entryDx=0;entryDy=0;" edge="1" parent="1" source="ZDEfIaSkDqP6nMyyf2R--21" target="ZDEfIaSkDqP6nMyyf2R--22">
          <mxGeometry relative="1" as="geometry">
            <Array as="points">
              <mxPoint x="550" y="410" />
              <mxPoint x="470" y="410" />
              <mxPoint x="470" y="380" />
            </Array>
          </mxGeometry>
        </mxCell>
        <mxCell id="ZDEfIaSkDqP6nMyyf2R--21" value="Response 1" style="shape=parallelogram;perimeter=parallelogramPerimeter;whiteSpace=wrap;html=1;fixedSize=1;" vertex="1" parent="1">
          <mxGeometry x="540" y="360" width="120" height="60" as="geometry" />
        </mxCell>
        <mxCell id="ZDEfIaSkDqP6nMyyf2R--22" value="Process&lt;br&gt;Actions[ ]" style="rounded=0;whiteSpace=wrap;html=1;" vertex="1" parent="1">
          <mxGeometry x="270" y="380" width="120" height="60" as="geometry" />
        </mxCell>
        <mxCell id="ZDEfIaSkDqP6nMyyf2R--27" style="edgeStyle=orthogonalEdgeStyle;rounded=0;orthogonalLoop=1;jettySize=auto;html=1;entryX=1;entryY=0.25;entryDx=0;entryDy=0;" edge="1" parent="1" source="ZDEfIaSkDqP6nMyyf2R--24" target="ZDEfIaSkDqP6nMyyf2R--22">
          <mxGeometry relative="1" as="geometry" />
        </mxCell>
        <mxCell id="ZDEfIaSkDqP6nMyyf2R--24" value="Response 2" style="shape=parallelogram;perimeter=parallelogramPerimeter;whiteSpace=wrap;html=1;fixedSize=1;" vertex="1" parent="1">
          <mxGeometry x="540" y="437" width="120" height="60" as="geometry" />
        </mxCell>
        <mxCell id="ZDEfIaSkDqP6nMyyf2R--28" style="edgeStyle=orthogonalEdgeStyle;rounded=0;orthogonalLoop=1;jettySize=auto;html=1;entryX=1;entryY=0.5;entryDx=0;entryDy=0;" edge="1" parent="1" source="ZDEfIaSkDqP6nMyyf2R--25" target="ZDEfIaSkDqP6nMyyf2R--22">
          <mxGeometry relative="1" as="geometry">
            <Array as="points">
              <mxPoint x="440" y="550" />
              <mxPoint x="440" y="410" />
            </Array>
          </mxGeometry>
        </mxCell>
        <mxCell id="ZDEfIaSkDqP6nMyyf2R--25" value="Response 2" style="shape=parallelogram;perimeter=parallelogramPerimeter;whiteSpace=wrap;html=1;fixedSize=1;" vertex="1" parent="1">
          <mxGeometry x="540" y="513" width="120" height="60" as="geometry" />
        </mxCell>
        <mxCell id="ZDEfIaSkDqP6nMyyf2R--29" style="edgeStyle=orthogonalEdgeStyle;rounded=0;orthogonalLoop=1;jettySize=auto;html=1;entryX=1;entryY=0.75;entryDx=0;entryDy=0;" edge="1" parent="1" source="ZDEfIaSkDqP6nMyyf2R--26" target="ZDEfIaSkDqP6nMyyf2R--22">
          <mxGeometry relative="1" as="geometry">
            <Array as="points">
              <mxPoint x="420" y="620" />
              <mxPoint x="420" y="425" />
            </Array>
          </mxGeometry>
        </mxCell>
        <mxCell id="ZDEfIaSkDqP6nMyyf2R--26" value="Response 4" style="shape=parallelogram;perimeter=parallelogramPerimeter;whiteSpace=wrap;html=1;fixedSize=1;" vertex="1" parent="1">
          <mxGeometry x="540" y="590" width="120" height="60" as="geometry" />
        </mxCell>
        <mxCell id="ZDEfIaSkDqP6nMyyf2R--42" style="edgeStyle=orthogonalEdgeStyle;rounded=0;orthogonalLoop=1;jettySize=auto;html=1;entryX=0.25;entryY=0;entryDx=0;entryDy=0;" edge="1" parent="1" source="ZDEfIaSkDqP6nMyyf2R--32" target="ZDEfIaSkDqP6nMyyf2R--1">
          <mxGeometry relative="1" as="geometry">
            <Array as="points">
              <mxPoint x="80" y="355" />
              <mxPoint x="80" y="150" />
              <mxPoint x="280" y="150" />
            </Array>
          </mxGeometry>
        </mxCell>
        <mxCell id="ZDEfIaSkDqP6nMyyf2R--32" value="NextDialog(dialog)" style="rounded=1;whiteSpace=wrap;html=1;" vertex="1" parent="1">
          <mxGeometry x="120" y="340" width="120" height="30" as="geometry" />
        </mxCell>
        <mxCell id="ZDEfIaSkDqP6nMyyf2R--33" value="AddFlag" style="rounded=1;whiteSpace=wrap;html=1;" vertex="1" parent="1">
          <mxGeometry x="140" y="390" width="100" height="30" as="geometry" />
        </mxCell>
        <mxCell id="ZDEfIaSkDqP6nMyyf2R--34" value="RemoveFlag" style="rounded=1;whiteSpace=wrap;html=1;" vertex="1" parent="1">
          <mxGeometry x="140" y="430" width="100" height="30" as="geometry" />
        </mxCell>
        <mxCell id="ZDEfIaSkDqP6nMyyf2R--37" value="Copy responses&lt;br&gt;actions to &lt;br&gt;response action" style="rounded=0;whiteSpace=wrap;html=1;" vertex="1" parent="1">
          <mxGeometry x="696" y="240" width="120" height="60" as="geometry" />
        </mxCell>
        <mxCell id="ZDEfIaSkDqP6nMyyf2R--39" style="edgeStyle=orthogonalEdgeStyle;rounded=0;orthogonalLoop=1;jettySize=auto;html=1;entryX=0.696;entryY=0.005;entryDx=0;entryDy=0;entryPerimeter=0;" edge="1" parent="1" source="ZDEfIaSkDqP6nMyyf2R--37" target="ZDEfIaSkDqP6nMyyf2R--36">
          <mxGeometry relative="1" as="geometry" />
        </mxCell>
        <mxCell id="ZDEfIaSkDqP6nMyyf2R--43" value="" style="ellipse;whiteSpace=wrap;html=1;aspect=fixed;" vertex="1" parent="1">
          <mxGeometry x="80" y="392.5" width="25" height="25" as="geometry" />
        </mxCell>
        <mxCell id="ZDEfIaSkDqP6nMyyf2R--44" value="" style="ellipse;whiteSpace=wrap;html=1;aspect=fixed;" vertex="1" parent="1">
          <mxGeometry x="80" y="432.5" width="25" height="25" as="geometry" />
        </mxCell>
        <mxCell id="ZDEfIaSkDqP6nMyyf2R--45" value="SetFlagTrue" style="rounded=1;whiteSpace=wrap;html=1;" vertex="1" parent="1">
          <mxGeometry x="140" y="470" width="100" height="30" as="geometry" />
        </mxCell>
        <mxCell id="ZDEfIaSkDqP6nMyyf2R--46" value="SetFlagFalse" style="rounded=1;whiteSpace=wrap;html=1;" vertex="1" parent="1">
          <mxGeometry x="140" y="510" width="100" height="30" as="geometry" />
        </mxCell>
        <mxCell id="ZDEfIaSkDqP6nMyyf2R--47" value="giveItem" style="rounded=1;whiteSpace=wrap;html=1;" vertex="1" parent="1">
          <mxGeometry x="140" y="550" width="100" height="30" as="geometry" />
        </mxCell>
        <mxCell id="ZDEfIaSkDqP6nMyyf2R--48" value="takeItem" style="rounded=1;whiteSpace=wrap;html=1;" vertex="1" parent="1">
          <mxGeometry x="140" y="590" width="100" height="30" as="geometry" />
        </mxCell>
        <mxCell id="ZDEfIaSkDqP6nMyyf2R--51" style="edgeStyle=orthogonalEdgeStyle;rounded=0;orthogonalLoop=1;jettySize=auto;html=1;entryX=0.5;entryY=0;entryDx=0;entryDy=0;" edge="1" parent="1" source="ZDEfIaSkDqP6nMyyf2R--49" target="ZDEfIaSkDqP6nMyyf2R--50">
          <mxGeometry relative="1" as="geometry" />
        </mxCell>
        <mxCell id="ZDEfIaSkDqP6nMyyf2R--49" value="endDialog" style="rounded=1;whiteSpace=wrap;html=1;" vertex="1" parent="1">
          <mxGeometry x="140" y="630" width="100" height="30" as="geometry" />
        </mxCell>
        <mxCell id="ZDEfIaSkDqP6nMyyf2R--50" value="end" style="ellipse;whiteSpace=wrap;html=1;" vertex="1" parent="1">
          <mxGeometry x="140" y="700" width="100" height="40" as="geometry" />
        </mxCell>
        <mxCell id="ZDEfIaSkDqP6nMyyf2R--52" value="" style="ellipse;whiteSpace=wrap;html=1;aspect=fixed;" vertex="1" parent="1">
          <mxGeometry x="80" y="472.5" width="25" height="25" as="geometry" />
        </mxCell>
        <mxCell id="ZDEfIaSkDqP6nMyyf2R--53" value="" style="ellipse;whiteSpace=wrap;html=1;aspect=fixed;" vertex="1" parent="1">
          <mxGeometry x="80" y="512.5" width="25" height="25" as="geometry" />
        </mxCell>
        <mxCell id="ZDEfIaSkDqP6nMyyf2R--54" value="" style="ellipse;whiteSpace=wrap;html=1;aspect=fixed;" vertex="1" parent="1">
          <mxGeometry x="80" y="552.5" width="25" height="25" as="geometry" />
        </mxCell>
        <mxCell id="ZDEfIaSkDqP6nMyyf2R--55" value="" style="ellipse;whiteSpace=wrap;html=1;aspect=fixed;" vertex="1" parent="1">
          <mxGeometry x="80" y="592.5" width="25" height="25" as="geometry" />
        </mxCell>
      </root>
    </mxGraphModel>
  </diagram>
</mxfile>
